solid OpenSCAD_Model
  facet normal -1 0 0
    outer loop
      vertex -0.125 -0.5 -0.0375004
      vertex -0.125 -0.125 0.125
      vertex -0.125 -0.125 -0.0375004
    endloop
  endfacet
  facet normal -1 -0 0
    outer loop
      vertex -0.125 -0.125 0.125
      vertex -0.125 -0.5 -0.0375004
      vertex -0.125 -0.5 0.125
    endloop
  endfacet
  facet normal -1 0 0
    outer loop
      vertex -0.125 0.125 -0.0375004
      vertex -0.125 0.5 0.125
      vertex -0.125 0.5 -0.0375004
    endloop
  endfacet
  facet normal -1 -0 0
    outer loop
      vertex -0.125 0.5 0.125
      vertex -0.125 0.125 -0.0375004
      vertex -0.125 0.125 0.125
    endloop
  endfacet
  facet normal 0 0 1
    outer loop
      vertex 0.5 -0.09375 0.125
      vertex 0.125 -0.125 0.125
      vertex 0.5 -0.125 0.125
    endloop
  endfacet
  facet normal -0 0 1
    outer loop
      vertex 0.09375 -0.09375 0.125
      vertex 0.125 -0.125 0.125
      vertex 0.5 -0.09375 0.125
    endloop
  endfacet
  facet normal 0 0 1
    outer loop
      vertex 0.09375 -0.5 0.125
      vertex 0.125 -0.125 0.125
      vertex 0.09375 -0.09375 0.125
    endloop
  endfacet
  facet normal 0 0 1
    outer loop
      vertex 0.125 -0.125 0.125
      vertex 0.09375 -0.5 0.125
      vertex 0.125 -0.5 0.125
    endloop
  endfacet
  facet normal 0 0 1
    outer loop
      vertex -0.09375 -0.09375 0.125
      vertex -0.125 -0.125 0.125
      vertex -0.09375 -0.5 0.125
    endloop
  endfacet
  facet normal -0 0 1
    outer loop
      vertex -0.5 -0.09375 0.125
      vertex -0.125 -0.125 0.125
      vertex -0.09375 -0.09375 0.125
    endloop
  endfacet
  facet normal 0 0 1
    outer loop
      vertex -0.125 -0.125 0.125
      vertex -0.5 -0.09375 0.125
      vertex -0.5 -0.125 0.125
    endloop
  endfacet
  facet normal 0 0 1
    outer loop
      vertex -0.09375 -0.5 0.125
      vertex -0.125 -0.125 0.125
      vertex -0.125 -0.5 0.125
    endloop
  endfacet
  facet normal 0 0 1
    outer loop
      vertex 0.125 0.5 0.125
      vertex 0.09375 0.5 0.125
      vertex 0.125 0.125 0.125
    endloop
  endfacet
  facet normal -0 0 1
    outer loop
      vertex 0.125 0.125 0.125
      vertex 0.5 0.09375 0.125
      vertex 0.5 0.125 0.125
    endloop
  endfacet
  facet normal 0 0 1
    outer loop
      vertex 0.125 0.125 0.125
      vertex 0.09375 0.09375 0.125
      vertex 0.5 0.09375 0.125
    endloop
  endfacet
  facet normal 0 0 1
    outer loop
      vertex 0.09375 0.09375 0.125
      vertex 0.125 0.125 0.125
      vertex 0.09375 0.5 0.125
    endloop
  endfacet
  facet normal 0 0 1
    outer loop
      vertex -0.125 0.125 0.125
      vertex -0.09375 0.5 0.125
      vertex -0.125 0.5 0.125
    endloop
  endfacet
  facet normal 0 0 1
    outer loop
      vertex -0.09375 0.5 0.125
      vertex -0.125 0.125 0.125
      vertex -0.09375 0.09375 0.125
    endloop
  endfacet
  facet normal 0 0 1
    outer loop
      vertex -0.5 0.09375 0.125
      vertex -0.125 0.125 0.125
      vertex -0.5 0.125 0.125
    endloop
  endfacet
  facet normal 0 0 1
    outer loop
      vertex -0.125 0.125 0.125
      vertex -0.5 0.09375 0.125
      vertex -0.09375 0.09375 0.125
    endloop
  endfacet
  facet normal 1 -0 0
    outer loop
      vertex 0.125 -0.5 0.125
      vertex 0.125 -0.125 -0.0375004
      vertex 0.125 -0.125 0.125
    endloop
  endfacet
  facet normal 1 0 0
    outer loop
      vertex 0.125 -0.125 -0.0375004
      vertex 0.125 -0.5 0.125
      vertex 0.125 -0.5 -0.0375004
    endloop
  endfacet
  facet normal 1 -0 0
    outer loop
      vertex 0.125 0.125 0.125
      vertex 0.125 0.5 -0.0375004
      vertex 0.125 0.5 0.125
    endloop
  endfacet
  facet normal 1 0 0
    outer loop
      vertex 0.125 0.5 -0.0375004
      vertex 0.125 0.125 0.125
      vertex 0.125 0.125 -0.0375004
    endloop
  endfacet
  facet normal 0 1 0
    outer loop
      vertex 0.125 0.5 0.125
      vertex 0.09375 0.5 0.03125
      vertex 0.09375 0.5 0.125
    endloop
  endfacet
  facet normal 0 1 0
    outer loop
      vertex 0.09375 0.5 0.03125
      vertex 0.125 0.5 -0.0375004
      vertex -0.09375 0.5 0.03125
    endloop
  endfacet
  facet normal 0 1 -0
    outer loop
      vertex 0.125 0.5 -0.0375004
      vertex 0.09375 0.5 0.03125
      vertex 0.125 0.5 0.125
    endloop
  endfacet
  facet normal 0 1 -0
    outer loop
      vertex -0.09375 0.5 0.03125
      vertex -0.125 0.5 0.125
      vertex -0.09375 0.5 0.125
    endloop
  endfacet
  facet normal 0 1 0
    outer loop
      vertex -0.09375 0.5 0.03125
      vertex -0.125 0.5 -0.0375004
      vertex -0.125 0.5 0.125
    endloop
  endfacet
  facet normal 0 1 0
    outer loop
      vertex -0.125 0.5 -0.0375004
      vertex -0.09375 0.5 0.03125
      vertex 0.125 0.5 -0.0375004
    endloop
  endfacet
  facet normal 0 -1 0
    outer loop
      vertex -0.125 -0.5 0.125
      vertex -0.09375 -0.5 0.03125
      vertex -0.09375 -0.5 0.125
    endloop
  endfacet
  facet normal 0 -1 -0
    outer loop
      vertex -0.09375 -0.5 0.03125
      vertex -0.125 -0.5 -0.0375004
      vertex 0.09375 -0.5 0.03125
    endloop
  endfacet
  facet normal 0 -1 0
    outer loop
      vertex -0.125 -0.5 -0.0375004
      vertex -0.09375 -0.5 0.03125
      vertex -0.125 -0.5 0.125
    endloop
  endfacet
  facet normal 0 -1 0
    outer loop
      vertex 0.09375 -0.5 0.03125
      vertex 0.125 -0.5 0.125
      vertex 0.09375 -0.5 0.125
    endloop
  endfacet
  facet normal 0 -1 0
    outer loop
      vertex 0.09375 -0.5 0.03125
      vertex 0.125 -0.5 -0.0375004
      vertex 0.125 -0.5 0.125
    endloop
  endfacet
  facet normal 0 -1 0
    outer loop
      vertex 0.125 -0.5 -0.0375004
      vertex 0.09375 -0.5 0.03125
      vertex -0.125 -0.5 -0.0375004
    endloop
  endfacet
  facet normal -1 0 0
    outer loop
      vertex -0.5 0.125 -0.0375004
      vertex -0.5 0.09375 0.03125
      vertex -0.5 0.125 0.125
    endloop
  endfacet
  facet normal -1 0 0
    outer loop
      vertex -0.5 0.125 -0.0375004
      vertex -0.5 -0.09375 0.03125
      vertex -0.5 0.09375 0.03125
    endloop
  endfacet
  facet normal -1 0 0
    outer loop
      vertex -0.5 -0.125 -0.0375004
      vertex -0.5 -0.09375 0.03125
      vertex -0.5 0.125 -0.0375004
    endloop
  endfacet
  facet normal -1 0 0
    outer loop
      vertex -0.5 -0.125 0.125
      vertex -0.5 -0.09375 0.03125
      vertex -0.5 -0.125 -0.0375004
    endloop
  endfacet
  facet normal -1 0 0
    outer loop
      vertex -0.5 -0.09375 0.03125
      vertex -0.5 -0.125 0.125
      vertex -0.5 -0.09375 0.125
    endloop
  endfacet
  facet normal -1 -0 0
    outer loop
      vertex -0.5 0.125 0.125
      vertex -0.5 0.09375 0.03125
      vertex -0.5 0.09375 0.125
    endloop
  endfacet
  facet normal 1 0 0
    outer loop
      vertex 0.5 -0.09375 0.125
      vertex 0.5 -0.125 0.125
      vertex 0.5 -0.09375 0.03125
    endloop
  endfacet
  facet normal 1 0 0
    outer loop
      vertex 0.5 0.09375 0.03125
      vertex 0.5 0.125 0.125
      vertex 0.5 0.09375 0.125
    endloop
  endfacet
  facet normal 1 0 0
    outer loop
      vertex 0.5 0.125 0.125
      vertex 0.5 0.09375 0.03125
      vertex 0.5 0.125 -0.0375004
    endloop
  endfacet
  facet normal 1 -0 0
    outer loop
      vertex 0.5 -0.09375 0.03125
      vertex 0.5 0.125 -0.0375004
      vertex 0.5 0.09375 0.03125
    endloop
  endfacet
  facet normal 1 0 0
    outer loop
      vertex 0.5 -0.09375 0.03125
      vertex 0.5 -0.125 -0.0375004
      vertex 0.5 0.125 -0.0375004
    endloop
  endfacet
  facet normal 1 0 0
    outer loop
      vertex 0.5 -0.125 -0.0375004
      vertex 0.5 -0.09375 0.03125
      vertex 0.5 -0.125 0.125
    endloop
  endfacet
  facet normal 0 -1 0
    outer loop
      vertex 0.125 -0.125 -0.0375004
      vertex 0.5 -0.125 0.125
      vertex 0.125 -0.125 0.125
    endloop
  endfacet
  facet normal 0 -1 -0
    outer loop
      vertex 0.5 -0.125 0.125
      vertex 0.125 -0.125 -0.0375004
      vertex 0.5 -0.125 -0.0375004
    endloop
  endfacet
  facet normal 0 -1 0
    outer loop
      vertex -0.5 -0.125 -0.0375004
      vertex -0.125 -0.125 0.125
      vertex -0.5 -0.125 0.125
    endloop
  endfacet
  facet normal 0 -1 -0
    outer loop
      vertex -0.125 -0.125 0.125
      vertex -0.5 -0.125 -0.0375004
      vertex -0.125 -0.125 -0.0375004
    endloop
  endfacet
  facet normal 0 1 -0
    outer loop
      vertex 0.5 0.125 -0.0375004
      vertex 0.125 0.125 0.125
      vertex 0.5 0.125 0.125
    endloop
  endfacet
  facet normal 0 1 0
    outer loop
      vertex 0.125 0.125 0.125
      vertex 0.5 0.125 -0.0375004
      vertex 0.125 0.125 -0.0375004
    endloop
  endfacet
  facet normal 0 1 -0
    outer loop
      vertex -0.125 0.125 -0.0375004
      vertex -0.5 0.125 0.125
      vertex -0.125 0.125 0.125
    endloop
  endfacet
  facet normal 0 1 0
    outer loop
      vertex -0.5 0.125 0.125
      vertex -0.125 0.125 -0.0375004
      vertex -0.5 0.125 -0.0375004
    endloop
  endfacet
  facet normal 1 -0 0
    outer loop
      vertex -0.09375 -0.5 0.125
      vertex -0.09375 -0.09375 0.03125
      vertex -0.09375 -0.09375 0.125
    endloop
  endfacet
  facet normal 1 0 0
    outer loop
      vertex -0.09375 -0.09375 0.03125
      vertex -0.09375 -0.5 0.125
      vertex -0.09375 -0.5 0.03125
    endloop
  endfacet
  facet normal 1 -0 0
    outer loop
      vertex -0.09375 0.09375 0.125
      vertex -0.09375 0.5 0.03125
      vertex -0.09375 0.5 0.125
    endloop
  endfacet
  facet normal 1 0 0
    outer loop
      vertex -0.09375 0.5 0.03125
      vertex -0.09375 0.09375 0.125
      vertex -0.09375 0.09375 0.03125
    endloop
  endfacet
  facet normal -1 0 0
    outer loop
      vertex 0.09375 -0.5 0.03125
      vertex 0.09375 -0.09375 0.125
      vertex 0.09375 -0.09375 0.03125
    endloop
  endfacet
  facet normal -1 -0 0
    outer loop
      vertex 0.09375 -0.09375 0.125
      vertex 0.09375 -0.5 0.03125
      vertex 0.09375 -0.5 0.125
    endloop
  endfacet
  facet normal -1 0 0
    outer loop
      vertex 0.09375 0.09375 0.03125
      vertex 0.09375 0.5 0.125
      vertex 0.09375 0.5 0.03125
    endloop
  endfacet
  facet normal -1 -0 0
    outer loop
      vertex 0.09375 0.5 0.125
      vertex 0.09375 0.09375 0.03125
      vertex 0.09375 0.09375 0.125
    endloop
  endfacet
  facet normal -0 0 1
    outer loop
      vertex -0.5 0.09375 0.03125
      vertex -0.09375 -0.09375 0.03125
      vertex -0.09375 0.09375 0.03125
    endloop
  endfacet
  facet normal 0 0 1
    outer loop
      vertex -0.09375 -0.09375 0.03125
      vertex -0.5 0.09375 0.03125
      vertex -0.5 -0.09375 0.03125
    endloop
  endfacet
  facet normal 0 0 1
    outer loop
      vertex -0.09375 0.09375 0.03125
      vertex 0.09375 0.09375 0.03125
      vertex 0.09375 0.5 0.03125
    endloop
  endfacet
  facet normal 0 0 1
    outer loop
      vertex 0.09375 0.09375 0.03125
      vertex -0.09375 0.09375 0.03125
      vertex 0.09375 -0.09375 0.03125
    endloop
  endfacet
  facet normal 0 0 1
    outer loop
      vertex -0.09375 0.09375 0.03125
      vertex 0.09375 0.5 0.03125
      vertex -0.09375 0.5 0.03125
    endloop
  endfacet
  facet normal 0 0 1
    outer loop
      vertex -0.09375 -0.09375 0.03125
      vertex 0.09375 -0.09375 0.03125
      vertex -0.09375 0.09375 0.03125
    endloop
  endfacet
  facet normal 0 0 1
    outer loop
      vertex 0.09375 -0.09375 0.03125
      vertex -0.09375 -0.09375 0.03125
      vertex 0.09375 -0.5 0.03125
    endloop
  endfacet
  facet normal 0 0 1
    outer loop
      vertex 0.09375 -0.5 0.03125
      vertex -0.09375 -0.09375 0.03125
      vertex -0.09375 -0.5 0.03125
    endloop
  endfacet
  facet normal -0 0 1
    outer loop
      vertex 0.09375 0.09375 0.03125
      vertex 0.5 -0.09375 0.03125
      vertex 0.5 0.09375 0.03125
    endloop
  endfacet
  facet normal 0 0 1
    outer loop
      vertex 0.5 -0.09375 0.03125
      vertex 0.09375 0.09375 0.03125
      vertex 0.09375 -0.09375 0.03125
    endloop
  endfacet
  facet normal 0 -1 0
    outer loop
      vertex 0.09375 0.09375 0.03125
      vertex 0.5 0.09375 0.125
      vertex 0.09375 0.09375 0.125
    endloop
  endfacet
  facet normal 0 -1 -0
    outer loop
      vertex 0.5 0.09375 0.125
      vertex 0.09375 0.09375 0.03125
      vertex 0.5 0.09375 0.03125
    endloop
  endfacet
  facet normal 0 -1 0
    outer loop
      vertex -0.5 0.09375 0.03125
      vertex -0.09375 0.09375 0.125
      vertex -0.5 0.09375 0.125
    endloop
  endfacet
  facet normal 0 -1 -0
    outer loop
      vertex -0.09375 0.09375 0.125
      vertex -0.5 0.09375 0.03125
      vertex -0.09375 0.09375 0.03125
    endloop
  endfacet
  facet normal 0 1 -0
    outer loop
      vertex 0.5 -0.09375 0.03125
      vertex 0.09375 -0.09375 0.125
      vertex 0.5 -0.09375 0.125
    endloop
  endfacet
  facet normal 0 1 0
    outer loop
      vertex 0.09375 -0.09375 0.125
      vertex 0.5 -0.09375 0.03125
      vertex 0.09375 -0.09375 0.03125
    endloop
  endfacet
  facet normal 0 1 -0
    outer loop
      vertex -0.09375 -0.09375 0.03125
      vertex -0.5 -0.09375 0.125
      vertex -0.09375 -0.09375 0.125
    endloop
  endfacet
  facet normal 0 1 0
    outer loop
      vertex -0.5 -0.09375 0.125
      vertex -0.09375 -0.09375 0.03125
      vertex -0.5 -0.09375 0.03125
    endloop
  endfacet
  facet normal 0 0 -1
    outer loop
      vertex -0.5 -0.125 -0.0375004
      vertex -0.125 0.125 -0.0375004
      vertex -0.125 -0.125 -0.0375004
    endloop
  endfacet
  facet normal -0 0 -1
    outer loop
      vertex -0.125 0.125 -0.0375004
      vertex -0.5 -0.125 -0.0375004
      vertex -0.5 0.125 -0.0375004
    endloop
  endfacet
  facet normal 0 0 -1
    outer loop
      vertex -0.125 -0.125 -0.0375004
      vertex 0.125 -0.125 -0.0375004
      vertex 0.125 -0.5 -0.0375004
    endloop
  endfacet
  facet normal 0 0 -1
    outer loop
      vertex 0.125 -0.125 -0.0375004
      vertex -0.125 -0.125 -0.0375004
      vertex 0.125 0.125 -0.0375004
    endloop
  endfacet
  facet normal 0 0 -1
    outer loop
      vertex -0.125 -0.125 -0.0375004
      vertex 0.125 -0.5 -0.0375004
      vertex -0.125 -0.5 -0.0375004
    endloop
  endfacet
  facet normal 0 0 -1
    outer loop
      vertex -0.125 0.125 -0.0375004
      vertex 0.125 0.125 -0.0375004
      vertex -0.125 -0.125 -0.0375004
    endloop
  endfacet
  facet normal 0 0 -1
    outer loop
      vertex 0.125 0.125 -0.0375004
      vertex -0.125 0.125 -0.0375004
      vertex 0.125 0.5 -0.0375004
    endloop
  endfacet
  facet normal -0 0 -1
    outer loop
      vertex 0.125 0.5 -0.0375004
      vertex -0.125 0.125 -0.0375004
      vertex -0.125 0.5 -0.0375004
    endloop
  endfacet
  facet normal 0 0 -1
    outer loop
      vertex 0.125 -0.125 -0.0375004
      vertex 0.5 0.125 -0.0375004
      vertex 0.5 -0.125 -0.0375004
    endloop
  endfacet
  facet normal -0 0 -1
    outer loop
      vertex 0.5 0.125 -0.0375004
      vertex 0.125 -0.125 -0.0375004
      vertex 0.125 0.125 -0.0375004
    endloop
  endfacet
endsolid OpenSCAD_Model
