####
#
# OBJ File Generated by Meshlab
#
####
# Object shape-6.obj
#
# Vertices: 84
# Faces: 28
#
####
mtllib /home/jon/workspace/kit1zx/resources/shape-6.obj.mtl

vn 0.000000 1.000000 0.000000
v 0.500000 0.125000 -0.125000 1.000000 0.000000 0.000000
vn 0.000000 1.000000 0.000000
v -0.174999 0.125000 -0.093750 1.000000 0.000000 0.000000
vn 0.000000 1.000000 0.000000
v 0.500000 0.125000 -0.093750 1.000000 0.000000 0.000000
vn 0.000000 1.000000 0.000000
v -0.174999 0.125000 -0.093750 1.000000 0.619608 0.000000
vn 0.000000 1.000000 0.000000
v -0.200000 0.125000 -0.125000 1.000000 0.619608 0.000000
vn 0.000000 1.000000 0.000000
v -0.174999 0.125000 0.093750 1.000000 0.619608 0.000000
vn 0.000000 1.000000 0.000000
v -0.200000 0.125000 -0.125000 1.000000 0.000000 0.000000
vn 0.000000 1.000000 0.000000
v -0.174999 0.125000 -0.093750 1.000000 0.000000 0.000000
vn 0.000000 1.000000 0.000000
v 0.500000 0.125000 -0.125000 1.000000 0.000000 0.000000
vn 0.000000 1.000000 0.000000
v -0.174999 0.125000 0.093750 1.000000 0.000000 0.000000
vn 0.000000 1.000000 0.000000
v 0.500000 0.125000 0.125000 1.000000 0.000000 0.000000
vn 0.000000 1.000000 0.000000
v 0.500000 0.125000 0.093750 1.000000 0.000000 0.000000
vn 0.000000 1.000000 0.000000
v -0.174999 0.125000 0.093750 1.000000 0.000000 0.000000
vn 0.000000 1.000000 0.000000
v -0.200000 0.125000 0.125000 1.000000 0.000000 0.000000
vn 0.000000 1.000000 0.000000
v 0.500000 0.125000 0.125000 1.000000 0.000000 0.000000
vn 0.000000 1.000000 0.000000
v -0.200000 0.125000 0.125000 1.000000 0.631373 0.000000
vn 0.000000 1.000000 0.000000
v -0.174999 0.125000 0.093750 1.000000 0.631373 0.000000
vn 0.000000 1.000000 0.000000
v -0.200000 0.125000 -0.125000 1.000000 0.631373 0.000000
vn 1.000000 0.000000 0.000000
v 0.500000 0.125000 0.093750 0.000000 1.000000 0.470588
vn 1.000000 0.000000 0.000000
v 0.500000 0.125000 0.125000 0.000000 1.000000 0.470588
vn 1.000000 0.000000 0.000000
v 0.500000 0.031250 0.093750 0.000000 1.000000 0.470588
vn 1.000000 0.000000 0.000000
v 0.500000 0.031250 -0.093750 0.000000 1.000000 0.470588
vn 1.000000 0.000000 0.000000
v 0.500000 0.125000 -0.125000 0.000000 1.000000 0.470588
vn 1.000000 0.000000 0.000000
v 0.500000 0.125000 -0.093750 0.000000 1.000000 0.470588
vn 1.000000 0.000000 0.000000
v 0.500000 0.125000 -0.125000 0.086275 1.000000 0.000000
vn 1.000000 0.000000 0.000000
v 0.500000 0.031250 -0.093750 0.086275 1.000000 0.000000
vn 1.000000 0.000000 0.000000
v 0.500000 -0.037500 -0.125000 0.086275 1.000000 0.000000
vn 1.000000 0.000000 0.000000
v 0.500000 0.031250 0.093750 0.000000 1.000000 0.235294
vn 1.000000 0.000000 0.000000
v 0.500000 -0.037500 -0.125000 0.000000 1.000000 0.235294
vn 1.000000 0.000000 0.000000
v 0.500000 0.031250 -0.093750 0.000000 1.000000 0.235294
vn 1.000000 0.000000 0.000000
v 0.500000 0.031250 0.093750 0.000000 1.000000 0.321569
vn 1.000000 0.000000 0.000000
v 0.500000 -0.037500 0.125000 0.000000 1.000000 0.321569
vn 1.000000 0.000000 0.000000
v 0.500000 -0.037500 -0.125000 0.000000 1.000000 0.321569
vn 1.000000 0.000000 0.000000
v 0.500000 -0.037500 0.125000 0.086275 1.000000 0.000000
vn 1.000000 0.000000 0.000000
v 0.500000 0.031250 0.093750 0.086275 1.000000 0.000000
vn 1.000000 0.000000 0.000000
v 0.500000 0.125000 0.125000 0.086275 1.000000 0.000000
vn 0.000000 0.000000 1.000000
v -0.200000 -0.037500 0.125000 0.301961 1.000000 0.000000
vn 0.000000 0.000000 1.000000
v 0.500000 0.125000 0.125000 0.301961 1.000000 0.000000
vn 0.000000 0.000000 1.000000
v -0.200000 0.125000 0.125000 0.301961 1.000000 0.000000
vn 0.000000 0.000000 1.000000
v 0.500000 0.125000 0.125000 0.301961 1.000000 0.000000
vn 0.000000 0.000000 1.000000
v -0.200000 -0.037500 0.125000 0.301961 1.000000 0.000000
vn 0.000000 0.000000 1.000000
v 0.500000 -0.037500 0.125000 0.301961 1.000000 0.000000
vn 0.000000 0.000000 -1.000000
v 0.500000 -0.037500 -0.125000 0.301961 1.000000 0.000000
vn 0.000000 0.000000 -1.000000
v -0.200000 0.125000 -0.125000 0.301961 1.000000 0.000000
vn 0.000000 0.000000 -1.000000
v 0.500000 0.125000 -0.125000 0.301961 1.000000 0.000000
vn 0.000000 0.000000 -1.000000
v -0.200000 0.125000 -0.125000 0.301961 1.000000 0.000000
vn 0.000000 0.000000 -1.000000
v 0.500000 -0.037500 -0.125000 0.301961 1.000000 0.000000
vn 0.000000 0.000000 -1.000000
v -0.200000 -0.037500 -0.125000 0.301961 1.000000 0.000000
vn 0.000000 -1.000000 0.000000
v -0.200000 -0.037500 0.125000 0.000000 1.000000 0.631373
vn 0.000000 -1.000000 0.000000
v 0.500000 -0.037500 -0.125000 0.000000 1.000000 0.631373
vn 0.000000 -1.000000 0.000000
v 0.500000 -0.037500 0.125000 0.000000 1.000000 0.631373
vn 0.000000 -1.000000 0.000000
v 0.500000 -0.037500 -0.125000 0.000000 1.000000 0.631373
vn 0.000000 -1.000000 0.000000
v -0.200000 -0.037500 0.125000 0.000000 1.000000 0.631373
vn 0.000000 -1.000000 0.000000
v -0.200000 -0.037500 -0.125000 0.000000 1.000000 0.631373
vn 1.000000 0.000000 0.000000
v -0.174999 0.125000 0.093750 0.000000 0.552941 1.000000
vn 1.000000 0.000000 0.000000
v -0.174999 0.031250 -0.093750 0.000000 0.552941 1.000000
vn 1.000000 0.000000 0.000000
v -0.174999 0.125000 -0.093750 0.000000 0.552941 1.000000
vn 1.000000 0.000000 0.000000
v -0.174999 0.031250 -0.093750 0.000000 0.552941 1.000000
vn 1.000000 0.000000 0.000000
v -0.174999 0.125000 0.093750 0.000000 0.552941 1.000000
vn 1.000000 0.000000 0.000000
v -0.174999 0.031250 0.093750 0.000000 0.552941 1.000000
vn 0.000000 1.000000 0.000000
v -0.174999 0.031250 -0.093750 0.000000 0.996078 0.058824
vn 0.000000 1.000000 0.000000
v 0.500000 0.031250 0.093750 0.000000 0.996078 0.058824
vn 0.000000 1.000000 0.000000
v 0.500000 0.031250 -0.093750 0.000000 0.996078 0.058824
vn 0.000000 1.000000 0.000000
v 0.500000 0.031250 0.093750 0.000000 0.996078 0.058824
vn 0.000000 1.000000 0.000000
v -0.174999 0.031250 -0.093750 0.000000 0.996078 0.058824
vn 0.000000 1.000000 0.000000
v -0.174999 0.031250 0.093750 0.000000 0.996078 0.058824
vn 0.000000 0.000000 -1.000000
v 0.500000 0.031250 0.093750 1.000000 0.874510 0.000000
vn 0.000000 0.000000 -1.000000
v -0.174999 0.125000 0.093750 1.000000 0.874510 0.000000
vn 0.000000 0.000000 -1.000000
v 0.500000 0.125000 0.093750 1.000000 0.874510 0.000000
vn 0.000000 0.000000 -1.000000
v -0.174999 0.125000 0.093750 1.000000 0.874510 0.000000
vn 0.000000 0.000000 -1.000000
v 0.500000 0.031250 0.093750 1.000000 0.874510 0.000000
vn 0.000000 0.000000 -1.000000
v -0.174999 0.031250 0.093750 1.000000 0.874510 0.000000
vn 0.000000 0.000000 1.000000
v -0.174999 0.031250 -0.093750 1.000000 0.874510 0.000000
vn 0.000000 0.000000 1.000000
v 0.500000 0.125000 -0.093750 1.000000 0.874510 0.000000
vn 0.000000 0.000000 1.000000
v -0.174999 0.125000 -0.093750 1.000000 0.874510 0.000000
vn 0.000000 0.000000 1.000000
v 0.500000 0.125000 -0.093750 1.000000 0.874510 0.000000
vn 0.000000 0.000000 1.000000
v -0.174999 0.031250 -0.093750 1.000000 0.874510 0.000000
vn 0.000000 0.000000 1.000000
v 0.500000 0.031250 -0.093750 1.000000 0.874510 0.000000
vn -1.000000 0.000000 0.000000
v -0.200000 -0.037500 0.125000 0.000000 0.000000 1.000000
vn -1.000000 0.000000 0.000000
v -0.200000 0.125000 -0.125000 0.000000 0.000000 1.000000
vn -1.000000 0.000000 0.000000
v -0.200000 -0.037500 -0.125000 0.000000 0.000000 1.000000
vn -1.000000 0.000000 0.000000
v -0.200000 0.125000 -0.125000 0.000000 0.000000 1.000000
vn -1.000000 0.000000 0.000000
v -0.200000 -0.037500 0.125000 0.000000 0.000000 1.000000
vn -1.000000 0.000000 0.000000
v -0.200000 0.125000 0.125000 0.000000 0.000000 1.000000
# 84 vertices, 0 vertices normals


usemtl material_0
f 1//1 2//2 3//3

usemtl material_1
f 4//4 5//5 6//6

usemtl material_0
f 7//7 8//8 9//9
f 10//10 11//11 12//12
f 13//13 14//14 15//15

usemtl material_2
f 16//16 17//17 18//18

usemtl material_3
f 19//19 20//20 21//21
f 22//22 23//23 24//24

usemtl material_4
f 25//25 26//26 27//27

usemtl material_5
f 28//28 29//29 30//30

usemtl material_6
f 31//31 32//32 33//33

usemtl material_4
f 34//34 35//35 36//36

usemtl material_7
f 37//37 38//38 39//39
f 40//40 41//41 42//42
f 43//43 44//44 45//45
f 46//46 47//47 48//48

usemtl material_8
f 49//49 50//50 51//51
f 52//52 53//53 54//54

usemtl material_9
f 55//55 56//56 57//57
f 58//58 59//59 60//60

usemtl material_10
f 61//61 62//62 63//63
f 64//64 65//65 66//66

usemtl material_11
f 67//67 68//68 69//69
f 70//70 71//71 72//72
f 73//73 74//74 75//75
f 76//76 77//77 78//78

usemtl material_12
f 79//79 80//80 81//81
f 82//82 83//83 84//84
# 28 faces, 0 coords texture

# End of File