####
#
# OBJ File Generated by Meshlab
#
####
# Object shape-15.obj
#
# Vertices: 132
# Faces: 44
#
####
mtllib ./shape-15.obj.mtl

vn -1.000000 0.000000 -0.000000
v -0.125000 -0.037500 0.500000 0.843137 0.843137 0.843137
vn -1.000000 0.000000 -0.000000
v -0.125000 0.125000 0.125000 0.050980 0.050980 0.050980
vn -1.000000 0.000000 -0.000000
v -0.125000 -0.037500 0.125000 0.082353 0.082353 0.082353
vn -1.000000 0.000000 -0.000000
v -0.125000 0.125000 0.125000 0.050980 0.050980 0.050980
vn -1.000000 0.000000 -0.000000
v -0.125000 -0.037500 0.500000 0.843137 0.843137 0.843137
vn -1.000000 0.000000 -0.000000
v -0.125000 0.125000 0.500000 0.886275 0.886275 0.886275
vn -1.000000 0.000000 -0.000000
v -0.125000 -0.037500 -0.125000 0.105882 0.105882 0.105882
vn -1.000000 0.000000 -0.000000
v -0.125000 0.125000 -0.500000 0.866667 0.866667 0.866667
vn -1.000000 0.000000 -0.000000
v -0.125000 -0.037500 -0.500000 0.882353 0.882353 0.882353
vn -1.000000 0.000000 -0.000000
v -0.125000 0.125000 -0.500000 0.866667 0.866667 0.866667
vn -1.000000 0.000000 -0.000000
v -0.125000 -0.037500 -0.125000 0.105882 0.105882 0.105882
vn -1.000000 0.000000 -0.000000
v -0.125000 0.125000 -0.125000 0.070588 0.070588 0.070588
vn 0.000000 1.000000 -0.000000
v -0.500000 0.125000 -0.125000 0.992157 0.992157 0.992157
vn 0.000000 1.000000 -0.000000
v -0.125000 0.125000 0.125000 0.992157 0.992157 0.992157
vn 0.000000 1.000000 -0.000000
v -0.125000 0.125000 -0.125000 0.992157 0.992157 0.992157
vn 0.000000 1.000000 -0.000000
v -0.125000 0.125000 0.125000 0.992157 0.992157 0.992157
vn 0.000000 1.000000 -0.000000
v -0.500000 0.125000 -0.125000 0.992157 0.992157 0.992157
vn 0.000000 1.000000 -0.000000
v -0.500000 0.125000 0.125000 0.992157 0.992157 0.992157
vn 0.000000 1.000000 -0.000000
v -0.125000 0.125000 -0.125000 0.992157 0.992157 0.992157
vn 0.000000 1.000000 -0.000000
v 0.125000 0.125000 -0.125000 0.992157 0.992157 0.992157
vn 0.000000 1.000000 -0.000000
v 0.125000 0.125000 -0.500000 0.992157 0.992157 0.992157
vn 0.000000 1.000000 -0.000000
v 0.125000 0.125000 -0.125000 0.992157 0.992157 0.992157
vn 0.000000 1.000000 -0.000000
v -0.125000 0.125000 -0.125000 0.992157 0.992157 0.992157
vn 0.000000 1.000000 -0.000000
v 0.125000 0.125000 0.125000 0.992157 0.992157 0.992157
vn 0.000000 1.000000 -0.000000
v -0.125000 0.125000 -0.125000 0.992157 0.992157 0.992157
vn 0.000000 1.000000 -0.000000
v 0.125000 0.125000 -0.500000 0.992157 0.992157 0.992157
vn 0.000000 1.000000 -0.000000
v -0.125000 0.125000 -0.500000 0.992157 0.992157 0.992157
vn 0.000000 1.000000 -0.000000
v -0.125000 0.125000 0.125000 0.992157 0.992157 0.992157
vn 0.000000 1.000000 -0.000000
v 0.125000 0.125000 0.125000 0.992157 0.992157 0.992157
vn 0.000000 1.000000 -0.000000
v -0.125000 0.125000 -0.125000 0.992157 0.992157 0.992157
vn 0.000000 1.000000 -0.000000
v 0.125000 0.125000 0.125000 0.992157 0.992157 0.992157
vn 0.000000 1.000000 -0.000000
v -0.125000 0.125000 0.125000 0.992157 0.992157 0.992157
vn 0.000000 1.000000 -0.000000
v 0.125000 0.125000 0.500000 0.992157 0.992157 0.992157
vn 0.000000 1.000000 -0.000000
v 0.125000 0.125000 0.500000 0.992157 0.992157 0.992157
vn 0.000000 1.000000 -0.000000
v -0.125000 0.125000 0.125000 0.992157 0.992157 0.992157
vn 0.000000 1.000000 -0.000000
v -0.125000 0.125000 0.500000 0.992157 0.992157 0.992157
vn 0.000000 1.000000 -0.000000
v 0.125000 0.125000 -0.125000 0.992157 0.992157 0.992157
vn 0.000000 1.000000 -0.000000
v 0.500000 0.125000 0.125000 0.992157 0.992157 0.992157
vn 0.000000 1.000000 -0.000000
v 0.500000 0.125000 -0.125000 0.992157 0.992157 0.992157
vn 0.000000 1.000000 -0.000000
v 0.500000 0.125000 0.125000 0.992157 0.992157 0.992157
vn 0.000000 1.000000 -0.000000
v 0.125000 0.125000 -0.125000 0.992157 0.992157 0.992157
vn 0.000000 1.000000 -0.000000
v 0.125000 0.125000 0.125000 0.992157 0.992157 0.992157
vn 1.000000 0.000000 0.000000
v 0.125000 0.125000 0.500000 0.909804 0.909804 0.909804
vn 1.000000 0.000000 0.000000
v 0.125000 -0.037500 0.125000 0.109804 0.109804 0.109804
vn 1.000000 0.000000 0.000000
v 0.125000 0.125000 0.125000 0.023529 0.023529 0.023529
vn 1.000000 0.000000 0.000000
v 0.125000 -0.037500 0.125000 0.109804 0.109804 0.109804
vn 1.000000 0.000000 0.000000
v 0.125000 0.125000 0.500000 0.909804 0.909804 0.909804
vn 1.000000 0.000000 0.000000
v 0.125000 -0.037500 0.500000 0.866667 0.866667 0.866667
vn 1.000000 0.000000 0.000000
v 0.125000 0.125000 -0.125000 0.160784 0.160784 0.160784
vn 1.000000 0.000000 0.000000
v 0.125000 -0.037500 -0.500000 0.882353 0.882353 0.882353
vn 1.000000 0.000000 0.000000
v 0.125000 0.125000 -0.500000 0.901961 0.901961 0.901961
vn 1.000000 0.000000 0.000000
v 0.125000 -0.037500 -0.500000 0.882353 0.882353 0.882353
vn 1.000000 0.000000 0.000000
v 0.125000 0.125000 -0.125000 0.160784 0.160784 0.160784
vn 1.000000 0.000000 0.000000
v 0.125000 -0.037500 -0.125000 0.000000 0.000000 0.000000
vn 0.000000 0.000000 1.000000
v -0.125000 -0.037500 0.500000 1.000000 1.000000 1.000000
vn 0.000000 0.000000 1.000000
v 0.125000 0.125000 0.500000 1.000000 1.000000 1.000000
vn 0.000000 0.000000 1.000000
v -0.125000 0.125000 0.500000 1.000000 1.000000 1.000000
vn 0.000000 0.000000 1.000000
v 0.125000 0.125000 0.500000 1.000000 1.000000 1.000000
vn 0.000000 0.000000 1.000000
v -0.125000 -0.037500 0.500000 1.000000 1.000000 1.000000
vn 0.000000 0.000000 1.000000
v 0.125000 -0.037500 0.500000 1.000000 1.000000 1.000000
vn 0.000000 -0.000000 -1.000000
v 0.125000 -0.037500 -0.500000 0.992157 0.992157 0.992157
vn 0.000000 -0.000000 -1.000000
v -0.125000 0.125000 -0.500000 0.992157 0.992157 0.992157
vn 0.000000 -0.000000 -1.000000
v 0.125000 0.125000 -0.500000 0.992157 0.992157 0.992157
vn 0.000000 -0.000000 -1.000000
v -0.125000 0.125000 -0.500000 0.992157 0.992157 0.992157
vn 0.000000 -0.000000 -1.000000
v 0.125000 -0.037500 -0.500000 0.992157 0.992157 0.992157
vn 0.000000 -0.000000 -1.000000
v -0.125000 -0.037500 -0.500000 0.992157 0.992157 0.992157
vn -1.000000 0.000000 -0.000000
v -0.500000 -0.037500 0.125000 0.996078 0.996078 0.996078
vn -1.000000 0.000000 -0.000000
v -0.500000 0.125000 -0.125000 0.996078 0.996078 0.996078
vn -1.000000 0.000000 -0.000000
v -0.500000 -0.037500 -0.125000 0.996078 0.996078 0.996078
vn -1.000000 0.000000 -0.000000
v -0.500000 0.125000 -0.125000 0.996078 0.996078 0.996078
vn -1.000000 0.000000 -0.000000
v -0.500000 -0.037500 0.125000 0.996078 0.996078 0.996078
vn -1.000000 0.000000 -0.000000
v -0.500000 0.125000 0.125000 0.996078 0.996078 0.996078
vn 1.000000 0.000000 0.000000
v 0.500000 0.125000 0.125000 0.996078 0.996078 0.996078
vn 1.000000 0.000000 0.000000
v 0.500000 -0.037500 -0.125000 0.996078 0.996078 0.996078
vn 1.000000 0.000000 0.000000
v 0.500000 0.125000 -0.125000 0.996078 0.996078 0.996078
vn 1.000000 0.000000 0.000000
v 0.500000 -0.037500 -0.125000 0.996078 0.996078 0.996078
vn 1.000000 0.000000 0.000000
v 0.500000 0.125000 0.125000 0.996078 0.996078 0.996078
vn 1.000000 0.000000 0.000000
v 0.500000 -0.037500 0.125000 0.996078 0.996078 0.996078
vn 0.000000 -0.000000 -1.000000
v 0.500000 -0.037500 -0.125000 0.917647 0.917647 0.917647
vn 0.000000 -0.000000 -1.000000
v 0.125000 0.125000 -0.125000 0.082353 0.082353 0.082353
vn 0.000000 -0.000000 -1.000000
v 0.500000 0.125000 -0.125000 0.890196 0.890196 0.890196
vn 0.000000 -0.000000 -1.000000
v 0.125000 0.125000 -0.125000 0.082353 0.082353 0.082353
vn 0.000000 -0.000000 -1.000000
v 0.500000 -0.037500 -0.125000 0.917647 0.917647 0.917647
vn 0.000000 -0.000000 -1.000000
v 0.125000 -0.037500 -0.125000 0.117647 0.117647 0.117647
vn 0.000000 -0.000000 -1.000000
v -0.125000 -0.037500 -0.125000 0.031373 0.031373 0.031373
vn 0.000000 -0.000000 -1.000000
v -0.500000 0.125000 -0.125000 0.850980 0.850980 0.850980
vn 0.000000 -0.000000 -1.000000
v -0.125000 0.125000 -0.125000 0.070588 0.070588 0.070588
vn 0.000000 -0.000000 -1.000000
v -0.500000 0.125000 -0.125000 0.850980 0.850980 0.850980
vn 0.000000 -0.000000 -1.000000
v -0.125000 -0.037500 -0.125000 0.031373 0.031373 0.031373
vn 0.000000 -0.000000 -1.000000
v -0.500000 -0.037500 -0.125000 0.901961 0.901961 0.901961
vn 0.000000 0.000000 1.000000
v 0.125000 -0.037500 0.125000 0.082353 0.082353 0.082353
vn 0.000000 0.000000 1.000000
v 0.500000 0.125000 0.125000 0.878431 0.878431 0.878431
vn 0.000000 0.000000 1.000000
v 0.125000 0.125000 0.125000 0.050980 0.050980 0.050980
vn 0.000000 0.000000 1.000000
v 0.500000 0.125000 0.125000 0.878431 0.878431 0.878431
vn 0.000000 0.000000 1.000000
v 0.125000 -0.037500 0.125000 0.082353 0.082353 0.082353
vn 0.000000 0.000000 1.000000
v 0.500000 -0.037500 0.125000 0.862745 0.862745 0.862745
vn 0.000000 0.000000 1.000000
v -0.500000 -0.037500 0.125000 0.854902 0.854902 0.854902
vn 0.000000 0.000000 1.000000
v -0.125000 0.125000 0.125000 0.113725 0.113725 0.113725
vn 0.000000 0.000000 1.000000
v -0.500000 0.125000 0.125000 0.843137 0.843137 0.843137
vn 0.000000 0.000000 1.000000
v -0.125000 0.125000 0.125000 0.113725 0.113725 0.113725
vn 0.000000 0.000000 1.000000
v -0.500000 -0.037500 0.125000 0.854902 0.854902 0.854902
vn 0.000000 0.000000 1.000000
v -0.125000 -0.037500 0.125000 0.074510 0.074510 0.074510
vn 0.000000 -1.000000 0.000000
v -0.500000 -0.037500 0.125000 0.992157 0.992157 0.992157
vn 0.000000 -1.000000 0.000000
v -0.125000 -0.037500 -0.125000 0.992157 0.992157 0.992157
vn 0.000000 -1.000000 0.000000
v -0.125000 -0.037500 0.125000 0.992157 0.992157 0.992157
vn 0.000000 -1.000000 0.000000
v -0.125000 -0.037500 -0.125000 0.992157 0.992157 0.992157
vn 0.000000 -1.000000 0.000000
v -0.500000 -0.037500 0.125000 0.992157 0.992157 0.992157
vn 0.000000 -1.000000 0.000000
v -0.500000 -0.037500 -0.125000 0.992157 0.992157 0.992157
vn 0.000000 -1.000000 0.000000
v -0.125000 -0.037500 0.125000 0.992157 0.992157 0.992157
vn 0.000000 -1.000000 0.000000
v 0.125000 -0.037500 0.125000 0.992157 0.992157 0.992157
vn 0.000000 -1.000000 0.000000
v 0.125000 -0.037500 0.500000 0.992157 0.992157 0.992157
vn 0.000000 -1.000000 0.000000
v 0.125000 -0.037500 0.125000 0.992157 0.992157 0.992157
vn 0.000000 -1.000000 0.000000
v -0.125000 -0.037500 0.125000 0.992157 0.992157 0.992157
vn 0.000000 -1.000000 0.000000
v 0.125000 -0.037500 -0.125000 0.992157 0.992157 0.992157
vn 0.000000 -1.000000 0.000000
v -0.125000 -0.037500 0.125000 0.992157 0.992157 0.992157
vn 0.000000 -1.000000 0.000000
v 0.125000 -0.037500 0.500000 0.992157 0.992157 0.992157
vn 0.000000 -1.000000 0.000000
v -0.125000 -0.037500 0.500000 0.992157 0.992157 0.992157
vn 0.000000 -1.000000 0.000000
v -0.125000 -0.037500 -0.125000 0.992157 0.992157 0.992157
vn 0.000000 -1.000000 0.000000
v 0.125000 -0.037500 -0.125000 0.992157 0.992157 0.992157
vn 0.000000 -1.000000 0.000000
v -0.125000 -0.037500 0.125000 0.992157 0.992157 0.992157
vn 0.000000 -1.000000 0.000000
v 0.125000 -0.037500 -0.125000 0.992157 0.992157 0.992157
vn 0.000000 -1.000000 0.000000
v -0.125000 -0.037500 -0.125000 0.992157 0.992157 0.992157
vn 0.000000 -1.000000 0.000000
v 0.125000 -0.037500 -0.500000 0.992157 0.992157 0.992157
vn 0.000000 -1.000000 0.000000
v 0.125000 -0.037500 -0.500000 0.992157 0.992157 0.992157
vn 0.000000 -1.000000 0.000000
v -0.125000 -0.037500 -0.125000 0.992157 0.992157 0.992157
vn 0.000000 -1.000000 0.000000
v -0.125000 -0.037500 -0.500000 0.992157 0.992157 0.992157
vn 0.000000 -1.000000 0.000000
v 0.125000 -0.037500 0.125000 0.992157 0.992157 0.992157
vn 0.000000 -1.000000 0.000000
v 0.500000 -0.037500 -0.125000 0.992157 0.992157 0.992157
vn 0.000000 -1.000000 0.000000
v 0.500000 -0.037500 0.125000 0.992157 0.992157 0.992157
vn 0.000000 -1.000000 0.000000
v 0.500000 -0.037500 -0.125000 0.992157 0.992157 0.992157
vn 0.000000 -1.000000 0.000000
v 0.125000 -0.037500 0.125000 0.992157 0.992157 0.992157
vn 0.000000 -1.000000 0.000000
v 0.125000 -0.037500 -0.125000 0.992157 0.992157 0.992157
# 132 vertices, 0 vertices normals


usemtl material_0
vt 0.000977 0.802358
vt 0.197642 0.999023
vt 0.000977 0.999023
f 1/1/1 2/2/2 3/3/3
vt 0.199023 0.997642
vt 0.002358 0.800977
vt 0.199023 0.800977
f 4/4/4 5/5/5 6/6/6
vt 0.200977 0.802358
vt 0.397642 0.999023
vt 0.200977 0.999023
f 7/7/7 8/8/8 9/9/9
vt 0.399023 0.997642
vt 0.202358 0.800977
vt 0.399023 0.800977
f 10/10/10 11/11/11 12/12/12

usemtl material_1
vt 0.400977 0.802358
vt 0.597642 0.999023
vt 0.400977 0.999023
f 13/13/13 14/14/14 15/15/15
vt 0.599023 0.997642
vt 0.402358 0.800977
vt 0.599023 0.800977
f 16/16/16 17/17/17 18/18/18
vt 0.797642 0.999023
vt 0.600977 0.999023
vt 0.600977 0.802358
f 19/19/19 20/20/20 21/21/21

usemtl material_2
vt 0.799023 0.800977
vt 0.799023 0.997642
vt 0.602358 0.800977
f 22/22/22 23/23/23 24/24/24

usemtl material_1
vt 0.800977 0.802358
vt 0.997642 0.999023
vt 0.800977 0.999023
f 25/25/25 26/26/26 27/27/27

usemtl material_2
vt 0.999023 0.800977
vt 0.999023 0.997642
vt 0.802358 0.800977
f 28/28/28 29/29/29 30/30/30

usemtl material_1
vt 0.000977 0.799023
vt 0.000977 0.602358
vt 0.197642 0.799023
f 31/31/31 32/32/32 33/33/33
vt 0.199023 0.797642
vt 0.002358 0.600977
vt 0.199023 0.600977
f 34/34/34 35/35/35 36/36/36
vt 0.200977 0.602358
vt 0.397642 0.799023
vt 0.200977 0.799023
f 37/37/37 38/38/38 39/39/39
vt 0.399023 0.797642
vt 0.202358 0.600977
vt 0.399023 0.600977
f 40/40/40 41/41/41 42/42/42

usemtl material_0
vt 0.400977 0.602358
vt 0.597642 0.799023
vt 0.400977 0.799023
f 43/43/43 44/44/44 45/45/45
vt 0.599023 0.797642
vt 0.402358 0.600977
vt 0.599023 0.600977
f 46/46/46 47/47/47 48/48/48
vt 0.600977 0.602358
vt 0.797642 0.799023
vt 0.600977 0.799023
f 49/49/49 50/50/50 51/51/51
vt 0.799023 0.797642
vt 0.602358 0.600977
vt 0.799023 0.600977
f 52/52/52 53/53/53 54/54/54

usemtl material_3
vt 0.600977 0.397642
vt 0.600977 0.202358
vt 0.698619 0.300000
f 55/55/55 56/56/56 57/57/57
vt 0.797642 0.399023
vt 0.602358 0.399023
vt 0.700000 0.301381
f 58/58/58 59/59/59 60/60/60
vt 0.799023 0.202358
vt 0.799023 0.397642
vt 0.701381 0.300000
f 61/61/61 62/62/62 63/63/63
vt 0.602358 0.200977
vt 0.797642 0.200977
vt 0.700000 0.298619
f 64/64/64 65/65/65 66/66/66
vt 0.800977 0.397642
vt 0.800977 0.202358
vt 0.898619 0.300000
f 67/67/67 68/68/68 69/69/69
vt 0.997642 0.399023
vt 0.802358 0.399023
vt 0.900000 0.301381
f 70/70/70 71/71/71 72/72/72
vt 0.999023 0.202358
vt 0.999023 0.397642
vt 0.901381 0.300000
f 73/73/73 74/74/74 75/75/75
vt 0.802358 0.200977
vt 0.997642 0.200977
vt 0.900000 0.298619
f 76/76/76 77/77/77 78/78/78

usemtl material_0
vt 0.800977 0.602358
vt 0.997642 0.799023
vt 0.800977 0.799023
f 79/79/79 80/80/80 81/81/81
vt 0.999023 0.797642
vt 0.802358 0.600977
vt 0.999023 0.600977
f 82/82/82 83/83/83 84/84/84
vt 0.000977 0.402358
vt 0.197642 0.599023
vt 0.000977 0.599023
f 85/85/85 86/86/86 87/87/87
vt 0.199023 0.597642
vt 0.002358 0.400977
vt 0.199023 0.400977
f 88/88/88 89/89/89 90/90/90
vt 0.200977 0.402358
vt 0.397642 0.599023
vt 0.200977 0.599023
f 91/91/91 92/92/92 93/93/93
vt 0.399023 0.597642
vt 0.202358 0.400977
vt 0.399023 0.400977
f 94/94/94 95/95/95 96/96/96
vt 0.400977 0.402358
vt 0.597642 0.599023
vt 0.400977 0.599023
f 97/97/97 98/98/98 99/99/99
vt 0.599023 0.597642
vt 0.402358 0.400977
vt 0.599023 0.400977
f 100/100/100 101/101/101 102/102/102

usemtl material_1
vt 0.600977 0.402358
vt 0.797642 0.599023
vt 0.600977 0.599023
f 103/103/103 104/104/104 105/105/105
vt 0.799023 0.597642
vt 0.602358 0.400977
vt 0.799023 0.400977
f 106/106/106 107/107/107 108/108/108
vt 0.997642 0.599023
vt 0.800977 0.599023
vt 0.800977 0.402358
f 109/109/109 110/110/110 111/111/111

usemtl material_2
vt 0.999023 0.400977
vt 0.999023 0.597642
vt 0.802358 0.400977
f 112/112/112 113/113/113 114/114/114

usemtl material_1
vt 0.000977 0.202358
vt 0.197642 0.399023
vt 0.000977 0.399023
f 115/115/115 116/116/116 117/117/117

usemtl material_2
vt 0.199023 0.200977
vt 0.199023 0.397642
vt 0.002358 0.200977
f 118/118/118 119/119/119 120/120/120

usemtl material_1
vt 0.200977 0.399023
vt 0.200977 0.202358
vt 0.397642 0.399023
f 121/121/121 122/122/122 123/123/123
vt 0.399023 0.397642
vt 0.202358 0.200977
vt 0.399023 0.200977
f 124/124/124 125/125/125 126/126/126
vt 0.400977 0.202358
vt 0.597642 0.399023
vt 0.400977 0.399023
f 127/127/127 128/128/128 129/129/129
vt 0.599023 0.397642
vt 0.402358 0.200977
vt 0.599023 0.200977
f 130/130/130 131/131/131 132/132/132
# 44 faces, 132 coords texture

# End of File
