####
#
# OBJ File Generated by Meshlab
#
####
# Object shape-14.obj
#
# Vertices: 228
# Faces: 76
#
####
mtllib /home/jon/workspace/kit1zx/resources/shape-14.obj.mtl

vn 1.000000 0.000000 0.000000
v 0.200000 0.125000 0.125000 0.000000 0.341176 1.000000
vn 1.000000 0.000000 0.000000
v 0.200000 -0.037500 -0.125000 0.000000 0.341176 1.000000
vn 1.000000 0.000000 0.000000
v 0.200000 0.125000 -0.125000 0.000000 0.341176 1.000000
vn 1.000000 0.000000 0.000000
v 0.200000 -0.037500 -0.125000 0.000000 0.341176 1.000000
vn 1.000000 0.000000 0.000000
v 0.200000 0.125000 0.125000 0.000000 0.341176 1.000000
vn 1.000000 0.000000 0.000000
v 0.200000 -0.037500 0.125000 0.000000 0.341176 1.000000
vn 0.000000 0.000000 -1.000000
v -0.125000 -0.037500 -0.125000 0.000000 1.000000 0.917647
vn 0.000000 0.000000 -1.000000
v -0.500000 0.125000 -0.125000 0.000000 1.000000 0.917647
vn 0.000000 0.000000 -1.000000
v -0.125000 0.125000 -0.125000 0.000000 1.000000 0.917647
vn 0.000000 0.000000 -1.000000
v -0.500000 0.125000 -0.125000 0.000000 1.000000 0.917647
vn 0.000000 0.000000 -1.000000
v -0.125000 -0.037500 -0.125000 0.000000 1.000000 0.917647
vn 0.000000 0.000000 -1.000000
v -0.500000 -0.037500 -0.125000 0.000000 1.000000 0.917647
vn 0.000000 0.000000 -1.000000
v 0.200000 -0.037500 -0.125000 0.000000 0.952941 1.000000
vn 0.000000 0.000000 -1.000000
v 0.125000 0.125000 -0.125000 0.000000 0.952941 1.000000
vn 0.000000 0.000000 -1.000000
v 0.200000 0.125000 -0.125000 0.000000 0.952941 1.000000
vn 0.000000 0.000000 -1.000000
v 0.125000 0.125000 -0.125000 0.000000 0.952941 1.000000
vn 0.000000 0.000000 -1.000000
v 0.200000 -0.037500 -0.125000 0.000000 0.952941 1.000000
vn 0.000000 0.000000 -1.000000
v 0.125000 -0.037500 -0.125000 0.000000 0.952941 1.000000
vn 0.000000 0.000000 1.000000
v -0.500000 -0.037500 0.125000 0.000000 1.000000 0.917647
vn 0.000000 0.000000 1.000000
v -0.125000 0.125000 0.125000 0.000000 1.000000 0.917647
vn 0.000000 0.000000 1.000000
v -0.500000 0.125000 0.125000 0.000000 1.000000 0.917647
vn 0.000000 0.000000 1.000000
v -0.125000 0.125000 0.125000 0.000000 1.000000 0.917647
vn 0.000000 0.000000 1.000000
v -0.500000 -0.037500 0.125000 0.000000 1.000000 0.917647
vn 0.000000 0.000000 1.000000
v -0.125000 -0.037500 0.125000 0.000000 1.000000 0.917647
vn 0.000000 0.000000 1.000000
v 0.125000 -0.037500 0.125000 0.000000 0.952941 1.000000
vn 0.000000 0.000000 1.000000
v 0.200000 0.125000 0.125000 0.000000 0.952941 1.000000
vn 0.000000 0.000000 1.000000
v 0.125000 0.125000 0.125000 0.000000 0.952941 1.000000
vn 0.000000 0.000000 1.000000
v 0.200000 0.125000 0.125000 0.000000 0.952941 1.000000
vn 0.000000 0.000000 1.000000
v 0.125000 -0.037500 0.125000 0.000000 0.952941 1.000000
vn 0.000000 0.000000 1.000000
v 0.200000 -0.037500 0.125000 0.000000 0.952941 1.000000
vn -1.000000 0.000000 0.000000
v -0.125000 -0.037500 0.500000 0.000000 1.000000 0.917647
vn -1.000000 0.000000 0.000000
v -0.125000 0.125000 0.125000 0.000000 1.000000 0.917647
vn -1.000000 0.000000 0.000000
v -0.125000 -0.037500 0.125000 0.000000 1.000000 0.917647
vn -1.000000 0.000000 0.000000
v -0.125000 0.125000 0.125000 0.000000 1.000000 0.917647
vn -1.000000 0.000000 0.000000
v -0.125000 -0.037500 0.500000 0.000000 1.000000 0.917647
vn -1.000000 0.000000 0.000000
v -0.125000 0.125000 0.500000 0.000000 1.000000 0.917647
vn -1.000000 0.000000 0.000000
v -0.125000 -0.037500 -0.125000 0.000000 0.952941 1.000000
vn -1.000000 0.000000 0.000000
v -0.125000 0.125000 -0.200000 0.000000 0.952941 1.000000
vn -1.000000 0.000000 0.000000
v -0.125000 -0.037500 -0.200000 0.000000 0.952941 1.000000
vn -1.000000 0.000000 0.000000
v -0.125000 0.125000 -0.200000 0.000000 0.952941 1.000000
vn -1.000000 0.000000 0.000000
v -0.125000 -0.037500 -0.125000 0.000000 0.952941 1.000000
vn -1.000000 0.000000 0.000000
v -0.125000 0.125000 -0.125000 0.000000 0.952941 1.000000
vn 1.000000 0.000000 0.000000
v 0.125000 0.125000 0.500000 0.000000 1.000000 0.917647
vn 1.000000 0.000000 0.000000
v 0.125000 -0.037500 0.125000 0.000000 1.000000 0.917647
vn 1.000000 0.000000 0.000000
v 0.125000 0.125000 0.125000 0.000000 1.000000 0.917647
vn 1.000000 0.000000 0.000000
v 0.125000 -0.037500 0.125000 0.000000 1.000000 0.917647
vn 1.000000 0.000000 0.000000
v 0.125000 0.125000 0.500000 0.000000 1.000000 0.917647
vn 1.000000 0.000000 0.000000
v 0.125000 -0.037500 0.500000 0.000000 1.000000 0.917647
vn 1.000000 0.000000 0.000000
v 0.125000 0.125000 -0.125000 0.000000 0.952941 1.000000
vn 1.000000 0.000000 0.000000
v 0.125000 -0.037500 -0.200000 0.000000 0.952941 1.000000
vn 1.000000 0.000000 0.000000
v 0.125000 0.125000 -0.200000 0.000000 0.952941 1.000000
vn 1.000000 0.000000 0.000000
v 0.125000 -0.037500 -0.200000 0.000000 0.952941 1.000000
vn 1.000000 0.000000 0.000000
v 0.125000 0.125000 -0.125000 0.000000 0.952941 1.000000
vn 1.000000 0.000000 0.000000
v 0.125000 -0.037500 -0.125000 0.000000 0.952941 1.000000
vn 0.000000 0.000000 -1.000000
v 0.125000 -0.037500 -0.200000 0.000000 0.341176 1.000000
vn 0.000000 0.000000 -1.000000
v -0.125000 0.125000 -0.200000 0.000000 0.341176 1.000000
vn 0.000000 0.000000 -1.000000
v 0.125000 0.125000 -0.200000 0.000000 0.341176 1.000000
vn 0.000000 0.000000 -1.000000
v -0.125000 0.125000 -0.200000 0.000000 0.341176 1.000000
vn 0.000000 0.000000 -1.000000
v 0.125000 -0.037500 -0.200000 0.000000 0.341176 1.000000
vn 0.000000 0.000000 -1.000000
v -0.125000 -0.037500 -0.200000 0.000000 0.341176 1.000000
vn 0.000000 1.000000 0.000000
v -0.093750 0.125000 0.093750 1.000000 0.654902 0.000000
vn 0.000000 1.000000 0.000000
v -0.125000 0.125000 0.125000 1.000000 0.654902 0.000000
vn 0.000000 1.000000 0.000000
v -0.093750 0.125000 0.500000 1.000000 0.654902 0.000000
vn 0.000000 1.000000 0.000000
v -0.500000 0.125000 0.093750 1.000000 0.654902 0.000000
vn 0.000000 1.000000 0.000000
v -0.125000 0.125000 0.125000 1.000000 0.654902 0.000000
vn 0.000000 1.000000 0.000000
v -0.093750 0.125000 0.093750 1.000000 0.654902 0.000000
vn 0.000000 1.000000 0.000000
v -0.125000 0.125000 0.125000 1.000000 0.658824 0.000000
vn 0.000000 1.000000 0.000000
v -0.500000 0.125000 0.093750 1.000000 0.658824 0.000000
vn 0.000000 1.000000 0.000000
v -0.500000 0.125000 0.125000 1.000000 0.658824 0.000000
vn 0.000000 1.000000 0.000000
v -0.093750 0.125000 0.500000 1.000000 0.658824 0.000000
vn 0.000000 1.000000 0.000000
v -0.125000 0.125000 0.125000 1.000000 0.658824 0.000000
vn 0.000000 1.000000 0.000000
v -0.125000 0.125000 0.500000 1.000000 0.658824 0.000000
vn 0.000000 1.000000 0.000000
v 0.093624 0.125000 -0.093750 0.101961 1.000000 0.000000
vn 0.000000 1.000000 0.000000
v 0.125000 0.125000 -0.125000 0.101961 1.000000 0.000000
vn 0.000000 1.000000 0.000000
v 0.125000 0.125000 -0.200000 0.101961 1.000000 0.000000
vn 0.000000 1.000000 0.000000
v 0.125000 0.125000 -0.125000 0.898039 1.000000 0.000000
vn 0.000000 1.000000 0.000000
v 0.093750 0.125000 -0.093624 0.898039 1.000000 0.000000
vn 0.000000 1.000000 0.000000
v 0.125000 0.125000 0.125000 0.898039 1.000000 0.000000
vn 0.000000 1.000000 0.000000
v 0.093750 0.125000 0.500000 1.000000 0.541176 0.000000
vn 0.000000 1.000000 0.000000
v 0.125000 0.125000 0.125000 1.000000 0.541176 0.000000
vn 0.000000 1.000000 0.000000
v 0.093750 0.125000 -0.093624 1.000000 0.541176 0.000000
vn 0.000000 1.000000 0.000000
v 0.125000 0.125000 -0.125000 1.000000 0.027451 0.000000
vn 0.000000 1.000000 0.000000
v 0.093624 0.125000 -0.093750 1.000000 0.027451 0.000000
vn 0.000000 1.000000 0.000000
v 0.093750 0.125000 -0.093624 1.000000 0.027451 0.000000
vn 0.000000 1.000000 0.000000
v -0.125000 0.125000 -0.200000 0.000000 0.823529 0.996078
vn 0.000000 1.000000 0.000000
v 0.093624 0.125000 -0.093750 0.000000 0.823529 0.996078
vn 0.000000 1.000000 0.000000
v 0.125000 0.125000 -0.200000 0.000000 0.823529 0.996078
vn 0.000000 1.000000 0.000000
v -0.125000 0.125000 -0.125000 0.000000 1.000000 0.309804
vn 0.000000 1.000000 0.000000
v 0.093624 0.125000 -0.093750 0.000000 1.000000 0.309804
vn 0.000000 1.000000 0.000000
v -0.125000 0.125000 -0.200000 0.000000 1.000000 0.309804
vn 0.000000 1.000000 0.000000
v -0.500000 0.125000 -0.093750 1.000000 0.658824 0.000000
vn 0.000000 1.000000 0.000000
v -0.125000 0.125000 -0.125000 1.000000 0.658824 0.000000
vn 0.000000 1.000000 0.000000
v -0.500000 0.125000 -0.125000 1.000000 0.658824 0.000000
vn 0.000000 1.000000 0.000000
v -0.125000 0.125000 -0.125000 1.000000 0.541176 0.000000
vn 0.000000 1.000000 0.000000
v -0.500000 0.125000 -0.093750 1.000000 0.541176 0.000000
vn 0.000000 1.000000 0.000000
v 0.093624 0.125000 -0.093750 1.000000 0.541176 0.000000
vn 0.000000 1.000000 0.000000
v 0.125000 0.125000 -0.125000 0.000000 1.000000 0.200000
vn 0.000000 1.000000 0.000000
v 0.200000 0.125000 0.125000 0.000000 1.000000 0.200000
vn 0.000000 1.000000 0.000000
v 0.200000 0.125000 -0.125000 0.000000 1.000000 0.200000
vn 0.000000 1.000000 0.000000
v 0.200000 0.125000 0.125000 0.000000 1.000000 0.200000
vn 0.000000 1.000000 0.000000
v 0.125000 0.125000 -0.125000 0.000000 1.000000 0.200000
vn 0.000000 1.000000 0.000000
v 0.125000 0.125000 0.125000 0.000000 1.000000 0.200000
vn 0.000000 1.000000 0.000000
v 0.125000 0.125000 0.125000 1.000000 0.658824 0.000000
vn 0.000000 1.000000 0.000000
v 0.093750 0.125000 0.500000 1.000000 0.658824 0.000000
vn 0.000000 1.000000 0.000000
v 0.125000 0.125000 0.500000 1.000000 0.658824 0.000000
vn 0.000000 1.000000 0.000000
v 0.093750 0.125000 -0.093624 0.000000 0.000000 1.000000
vn 0.000000 1.000000 0.000000
v 0.093624 0.125000 -0.093750 0.000000 0.000000 1.000000
vn 0.000000 1.000000 0.000000
v 0.093624 0.125000 -0.093624 0.000000 0.000000 1.000000
vn 0.000000 0.000000 1.000000
v -0.125000 0.125000 0.500000 0.000000 1.000000 0.396078
vn 0.000000 0.000000 1.000000
v -0.093750 0.031250 0.500000 0.000000 1.000000 0.396078
vn 0.000000 0.000000 1.000000
v -0.093750 0.125000 0.500000 0.000000 1.000000 0.396078
vn 0.000000 0.000000 1.000000
v -0.093750 0.031250 0.500000 0.000000 1.000000 0.203922
vn 0.000000 0.000000 1.000000
v -0.125000 -0.037500 0.500000 0.000000 1.000000 0.203922
vn 0.000000 0.000000 1.000000
v 0.093750 0.031250 0.500000 0.000000 1.000000 0.203922
vn 0.000000 0.000000 1.000000
v -0.125000 -0.037500 0.500000 0.058824 1.000000 0.000000
vn 0.000000 0.000000 1.000000
v -0.093750 0.031250 0.500000 0.058824 1.000000 0.000000
vn 0.000000 0.000000 1.000000
v -0.125000 0.125000 0.500000 0.058824 1.000000 0.000000
vn 0.000000 0.000000 1.000000
v 0.093750 0.031250 0.500000 0.000000 1.000000 0.396078
vn 0.000000 0.000000 1.000000
v 0.125000 0.125000 0.500000 0.000000 1.000000 0.396078
vn 0.000000 0.000000 1.000000
v 0.093750 0.125000 0.500000 0.000000 1.000000 0.396078
vn 0.000000 0.000000 1.000000
v 0.093750 0.031250 0.500000 0.058824 1.000000 0.000000
vn 0.000000 0.000000 1.000000
v 0.125000 -0.037500 0.500000 0.058824 1.000000 0.000000
vn 0.000000 0.000000 1.000000
v 0.125000 0.125000 0.500000 0.058824 1.000000 0.000000
vn 0.000000 0.000000 1.000000
v 0.125000 -0.037500 0.500000 0.000000 1.000000 0.274510
vn 0.000000 0.000000 1.000000
v 0.093750 0.031250 0.500000 0.000000 1.000000 0.274510
vn 0.000000 0.000000 1.000000
v -0.125000 -0.037500 0.500000 0.000000 1.000000 0.274510
vn -1.000000 0.000000 0.000000
v -0.500000 -0.037500 -0.125000 0.058824 1.000000 0.000000
vn -1.000000 0.000000 0.000000
v -0.500000 0.031250 -0.093750 0.058824 1.000000 0.000000
vn -1.000000 0.000000 0.000000
v -0.500000 0.125000 -0.125000 0.058824 1.000000 0.000000
vn -1.000000 0.000000 0.000000
v -0.500000 -0.037500 -0.125000 0.000000 1.000000 0.203922
vn -1.000000 0.000000 0.000000
v -0.500000 0.031250 0.093750 0.000000 1.000000 0.203922
vn -1.000000 0.000000 0.000000
v -0.500000 0.031250 -0.093750 0.000000 1.000000 0.203922
vn -1.000000 0.000000 0.000000
v -0.500000 -0.037500 0.125000 0.000000 1.000000 0.274510
vn -1.000000 0.000000 0.000000
v -0.500000 0.031250 0.093750 0.000000 1.000000 0.274510
vn -1.000000 0.000000 0.000000
v -0.500000 -0.037500 -0.125000 0.000000 1.000000 0.274510
vn -1.000000 0.000000 0.000000
v -0.500000 0.125000 0.125000 0.058824 1.000000 0.000000
vn -1.000000 0.000000 0.000000
v -0.500000 0.031250 0.093750 0.058824 1.000000 0.000000
vn -1.000000 0.000000 0.000000
v -0.500000 -0.037500 0.125000 0.058824 1.000000 0.000000
vn -1.000000 0.000000 0.000000
v -0.500000 0.031250 0.093750 0.000000 1.000000 0.396078
vn -1.000000 0.000000 0.000000
v -0.500000 0.125000 0.125000 0.000000 1.000000 0.396078
vn -1.000000 0.000000 0.000000
v -0.500000 0.125000 0.093750 0.000000 1.000000 0.396078
vn -1.000000 0.000000 0.000000
v -0.500000 0.125000 -0.125000 0.000000 1.000000 0.396078
vn -1.000000 0.000000 0.000000
v -0.500000 0.031250 -0.093750 0.000000 1.000000 0.396078
vn -1.000000 0.000000 0.000000
v -0.500000 0.125000 -0.093750 0.000000 1.000000 0.396078
vn -1.000000 0.000000 0.000000
v 0.093624 0.031250 -0.093624 1.000000 0.007843 0.000000
vn -1.000000 0.000000 0.000000
v 0.093624 0.125000 -0.093750 1.000000 0.007843 0.000000
vn -1.000000 0.000000 0.000000
v 0.093624 0.031250 -0.093750 1.000000 0.007843 0.000000
vn -1.000000 0.000000 0.000000
v 0.093624 0.125000 -0.093750 1.000000 0.007843 0.000000
vn -1.000000 0.000000 0.000000
v 0.093624 0.031250 -0.093624 1.000000 0.007843 0.000000
vn -1.000000 0.000000 0.000000
v 0.093624 0.125000 -0.093624 1.000000 0.007843 0.000000
vn 0.000000 1.000000 0.000000
v 0.093624 0.031250 -0.093750 1.000000 0.000000 0.000000
vn 0.000000 1.000000 0.000000
v -0.093750 0.031250 0.093750 1.000000 0.000000 0.000000
vn 0.000000 1.000000 0.000000
v 0.093624 0.031250 -0.093624 1.000000 0.000000 0.000000
vn 0.000000 1.000000 0.000000
v -0.500000 0.031250 -0.093750 0.000000 1.000000 0.854902
vn 0.000000 1.000000 0.000000
v -0.093750 0.031250 0.093750 0.000000 1.000000 0.854902
vn 0.000000 1.000000 0.000000
v 0.093624 0.031250 -0.093750 0.000000 1.000000 0.854902
vn 0.000000 1.000000 0.000000
v -0.093750 0.031250 0.093750 0.000000 0.952941 0.996078
vn 0.000000 1.000000 0.000000
v -0.500000 0.031250 -0.093750 0.000000 0.952941 0.996078
vn 0.000000 1.000000 0.000000
v -0.500000 0.031250 0.093750 0.000000 0.952941 0.996078
vn 0.000000 1.000000 0.000000
v -0.093750 0.031250 0.093750 1.000000 0.000000 0.000000
vn 0.000000 1.000000 0.000000
v 0.093750 0.031250 -0.093624 1.000000 0.000000 0.000000
vn 0.000000 1.000000 0.000000
v 0.093624 0.031250 -0.093624 1.000000 0.000000 0.000000
vn 0.000000 1.000000 0.000000
v 0.093750 0.031250 -0.093624 0.000000 1.000000 0.854902
vn 0.000000 1.000000 0.000000
v -0.093750 0.031250 0.093750 0.000000 1.000000 0.854902
vn 0.000000 1.000000 0.000000
v 0.093750 0.031250 0.500000 0.000000 1.000000 0.854902
vn 0.000000 1.000000 0.000000
v 0.093750 0.031250 0.500000 0.000000 0.952941 0.996078
vn 0.000000 1.000000 0.000000
v -0.093750 0.031250 0.093750 0.000000 0.952941 0.996078
vn 0.000000 1.000000 0.000000
v -0.093750 0.031250 0.500000 0.000000 0.952941 0.996078
vn 0.000000 0.000000 -1.000000
v -0.093750 0.031250 0.093750 0.247059 1.000000 0.000000
vn 0.000000 0.000000 -1.000000
v -0.500000 0.125000 0.093750 0.247059 1.000000 0.000000
vn 0.000000 0.000000 -1.000000
v -0.093750 0.125000 0.093750 0.247059 1.000000 0.000000
vn 0.000000 0.000000 -1.000000
v -0.500000 0.125000 0.093750 0.247059 1.000000 0.000000
vn 0.000000 0.000000 -1.000000
v -0.093750 0.031250 0.093750 0.247059 1.000000 0.000000
vn 0.000000 0.000000 -1.000000
v -0.500000 0.031250 0.093750 0.247059 1.000000 0.000000
vn 0.000000 0.000000 1.000000
v -0.500000 0.031250 -0.093750 0.768627 1.000000 0.000000
vn 0.000000 0.000000 1.000000
v 0.093624 0.125000 -0.093750 0.768627 1.000000 0.000000
vn 0.000000 0.000000 1.000000
v -0.500000 0.125000 -0.093750 0.768627 1.000000 0.000000
vn 0.000000 0.000000 1.000000
v 0.093624 0.125000 -0.093750 0.768627 1.000000 0.000000
vn 0.000000 0.000000 1.000000
v -0.500000 0.031250 -0.093750 0.768627 1.000000 0.000000
vn 0.000000 0.000000 1.000000
v 0.093624 0.031250 -0.093750 0.768627 1.000000 0.000000
vn 1.000000 0.000000 0.000000
v -0.093750 0.125000 0.500000 0.247059 1.000000 0.000000
vn 1.000000 0.000000 0.000000
v -0.093750 0.031250 0.093750 0.247059 1.000000 0.000000
vn 1.000000 0.000000 0.000000
v -0.093750 0.125000 0.093750 0.247059 1.000000 0.000000
vn 1.000000 0.000000 0.000000
v -0.093750 0.031250 0.093750 0.247059 1.000000 0.000000
vn 1.000000 0.000000 0.000000
v -0.093750 0.125000 0.500000 0.247059 1.000000 0.000000
vn 1.000000 0.000000 0.000000
v -0.093750 0.031250 0.500000 0.247059 1.000000 0.000000
vn -1.000000 0.000000 0.000000
v 0.093750 0.031250 0.500000 0.768627 1.000000 0.000000
vn -1.000000 0.000000 0.000000
v 0.093750 0.125000 -0.093624 0.768627 1.000000 0.000000
vn -1.000000 0.000000 0.000000
v 0.093750 0.031250 -0.093624 0.768627 1.000000 0.000000
vn -1.000000 0.000000 0.000000
v 0.093750 0.125000 -0.093624 0.768627 1.000000 0.000000
vn -1.000000 0.000000 0.000000
v 0.093750 0.031250 0.500000 0.768627 1.000000 0.000000
vn -1.000000 0.000000 0.000000
v 0.093750 0.125000 0.500000 0.768627 1.000000 0.000000
vn 0.000000 0.000000 1.000000
v 0.093624 0.031250 -0.093624 1.000000 0.007843 0.000000
vn 0.000000 0.000000 1.000000
v 0.093750 0.125000 -0.093624 1.000000 0.007843 0.000000
vn 0.000000 0.000000 1.000000
v 0.093624 0.125000 -0.093624 1.000000 0.007843 0.000000
vn 0.000000 0.000000 1.000000
v 0.093750 0.125000 -0.093624 1.000000 0.007843 0.000000
vn 0.000000 0.000000 1.000000
v 0.093624 0.031250 -0.093624 1.000000 0.007843 0.000000
vn 0.000000 0.000000 1.000000
v 0.093750 0.031250 -0.093624 1.000000 0.007843 0.000000
vn 0.000000 -1.000000 0.000000
v -0.500000 -0.037500 0.125000 0.000000 0.305882 1.000000
vn 0.000000 -1.000000 0.000000
v -0.125000 -0.037500 -0.125000 0.000000 0.305882 1.000000
vn 0.000000 -1.000000 0.000000
v -0.125000 -0.037500 0.125000 0.000000 0.305882 1.000000
vn 0.000000 -1.000000 0.000000
v -0.125000 -0.037500 -0.125000 0.000000 0.305882 1.000000
vn 0.000000 -1.000000 0.000000
v -0.500000 -0.037500 0.125000 0.000000 0.305882 1.000000
vn 0.000000 -1.000000 0.000000
v -0.500000 -0.037500 -0.125000 0.000000 0.305882 1.000000
vn 0.000000 -1.000000 0.000000
v -0.125000 -0.037500 0.125000 0.000000 0.305882 1.000000
vn 0.000000 -1.000000 0.000000
v 0.125000 -0.037500 0.125000 0.000000 0.305882 1.000000
vn 0.000000 -1.000000 0.000000
v 0.125000 -0.037500 0.500000 0.000000 0.305882 1.000000
vn 0.000000 -1.000000 0.000000
v 0.125000 -0.037500 0.125000 0.000000 0.000000 1.000000
vn 0.000000 -1.000000 0.000000
v -0.125000 -0.037500 0.125000 0.000000 0.000000 1.000000
vn 0.000000 -1.000000 0.000000
v 0.125000 -0.037500 -0.125000 0.000000 0.000000 1.000000
vn 0.000000 -1.000000 0.000000
v -0.125000 -0.037500 0.125000 0.000000 0.305882 1.000000
vn 0.000000 -1.000000 0.000000
v 0.125000 -0.037500 0.500000 0.000000 0.305882 1.000000
vn 0.000000 -1.000000 0.000000
v -0.125000 -0.037500 0.500000 0.000000 0.305882 1.000000
vn 0.000000 -1.000000 0.000000
v -0.125000 -0.037500 -0.125000 0.000000 0.000000 1.000000
vn 0.000000 -1.000000 0.000000
v 0.125000 -0.037500 -0.125000 0.000000 0.000000 1.000000
vn 0.000000 -1.000000 0.000000
v -0.125000 -0.037500 0.125000 0.000000 0.000000 1.000000
vn 0.000000 -1.000000 0.000000
v 0.125000 -0.037500 -0.125000 0.000000 1.000000 0.200000
vn 0.000000 -1.000000 0.000000
v -0.125000 -0.037500 -0.125000 0.000000 1.000000 0.200000
vn 0.000000 -1.000000 0.000000
v 0.125000 -0.037500 -0.200000 0.000000 1.000000 0.200000
vn 0.000000 -1.000000 0.000000
v 0.125000 -0.037500 -0.200000 0.000000 1.000000 0.200000
vn 0.000000 -1.000000 0.000000
v -0.125000 -0.037500 -0.125000 0.000000 1.000000 0.200000
vn 0.000000 -1.000000 0.000000
v -0.125000 -0.037500 -0.200000 0.000000 1.000000 0.200000
vn 0.000000 -1.000000 0.000000
v 0.125000 -0.037500 0.125000 0.000000 1.000000 0.200000
vn 0.000000 -1.000000 0.000000
v 0.200000 -0.037500 -0.125000 0.000000 1.000000 0.200000
vn 0.000000 -1.000000 0.000000
v 0.200000 -0.037500 0.125000 0.000000 1.000000 0.200000
vn 0.000000 -1.000000 0.000000
v 0.200000 -0.037500 -0.125000 0.000000 1.000000 0.200000
vn 0.000000 -1.000000 0.000000
v 0.125000 -0.037500 0.125000 0.000000 1.000000 0.200000
vn 0.000000 -1.000000 0.000000
v 0.125000 -0.037500 -0.125000 0.000000 1.000000 0.200000
# 228 vertices, 0 vertices normals


usemtl material_0
f 1//1 2//2 3//3
f 4//4 5//5 6//6

usemtl material_1
f 7//7 8//8 9//9
f 10//10 11//11 12//12

usemtl material_2
f 13//13 14//14 15//15
f 16//16 17//17 18//18

usemtl material_1
f 19//19 20//20 21//21
f 22//22 23//23 24//24

usemtl material_2
f 25//25 26//26 27//27
f 28//28 29//29 30//30

usemtl material_1
f 31//31 32//32 33//33
f 34//34 35//35 36//36

usemtl material_2
f 37//37 38//38 39//39
f 40//40 41//41 42//42

usemtl material_1
f 43//43 44//44 45//45
f 46//46 47//47 48//48

usemtl material_2
f 49//49 50//50 51//51
f 52//52 53//53 54//54

usemtl material_0
f 55//55 56//56 57//57
f 58//58 59//59 60//60

usemtl material_3
f 61//61 62//62 63//63
f 64//64 65//65 66//66

usemtl material_4
f 67//67 68//68 69//69
f 70//70 71//71 72//72

usemtl material_5
f 73//73 74//74 75//75

usemtl material_6
f 76//76 77//77 78//78

usemtl material_7
f 79//79 80//80 81//81

usemtl material_8
f 82//82 83//83 84//84

usemtl material_9
f 85//85 86//86 87//87

usemtl material_10
f 88//88 89//89 90//90

usemtl material_4
f 91//91 92//92 93//93

usemtl material_7
f 94//94 95//95 96//96

usemtl material_11
f 97//97 98//98 99//99
f 100//100 101//101 102//102

usemtl material_4
f 103//103 104//104 105//105

usemtl material_12
f 106//106 107//107 108//108

usemtl material_13
f 109//109 110//110 111//111

usemtl material_14
f 112//112 113//113 114//114

usemtl material_15
f 115//115 116//116 117//117

usemtl material_13
f 118//118 119//119 120//120

usemtl material_15
f 121//121 122//122 123//123

usemtl material_16
f 124//124 125//125 126//126

usemtl material_15
f 127//127 128//128 129//129

usemtl material_14
f 130//130 131//131 132//132

usemtl material_16
f 133//133 134//134 135//135

usemtl material_15
f 136//136 137//137 138//138

usemtl material_13
f 139//139 140//140 141//141
f 142//142 143//143 144//144

usemtl material_17
f 145//145 146//146 147//147
f 148//148 149//149 150//150

usemtl material_18
f 151//151 152//152 153//153

usemtl material_19
f 154//154 155//155 156//156

usemtl material_20
f 157//157 158//158 159//159

usemtl material_18
f 160//160 161//161 162//162

usemtl material_19
f 163//163 164//164 165//165

usemtl material_20
f 166//166 167//167 168//168

usemtl material_21
f 169//169 170//170 171//171
f 172//172 173//173 174//174

usemtl material_22
f 175//175 176//176 177//177
f 178//178 179//179 180//180

usemtl material_21
f 181//181 182//182 183//183
f 184//184 185//185 186//186

usemtl material_22
f 187//187 188//188 189//189
f 190//190 191//191 192//192

usemtl material_17
f 193//193 194//194 195//195
f 196//196 197//197 198//198

usemtl material_23
f 199//199 200//200 201//201
f 202//202 203//203 204//204
f 205//205 206//206 207//207

usemtl material_12
f 208//208 209//209 210//210

usemtl material_23
f 211//211 212//212 213//213

usemtl material_12
f 214//214 215//215 216//216

usemtl material_11
f 217//217 218//218 219//219
f 220//220 221//221 222//222
f 223//223 224//224 225//225
f 226//226 227//227 228//228
# 76 faces, 0 coords texture

# End of File