####
#
# OBJ File Generated by Meshlab
#
####
# Object terrain.obj
#
# Vertices: 4
# Faces: 4
#
####
mtllib ./resources/terrain.obj.mtl

vn 0.577350 0.577350 0.577350
v 1.000000 1.000000 1.000000
vn -0.577350 0.577350 -0.577350
v -1.000000 1.000000 -1.000000
vn -0.577350 -0.577350 0.577350
v -1.000000 -1.000000 1.000000
vn 0.577350 -0.577350 -0.577350
v 1.000000 -1.000000 -1.000000
# 4 vertices, 0 vertices normals


usemtl material_0
f 1//1 2//2 3//3

usemtl material_1
f 1//1 3//3 4//4

usemtl material_2
f 1//1 4//4 2//2

usemtl material_3
f 4//4 3//3 2//2
# 4 faces, 0 coords texture

# End of File
