mtllib ./resources/tri001.obj.mtl

vn 0.604600 0.604600 0.604600
v 0.500000 0.500000 0.500000 0.329412 0.329412 0.329412
vn -0.604600 0.604600 -0.604600
v -0.500000 0.500000 -0.500000 0.329412 0.666667 0.329412
vn -0.604600 -0.604600 0.604600
v -0.500000 -0.500000 0.500000 0.666667 0.666667 0.000000
vn 0.604600 -0.604600 -0.604600
v 0.500000 -0.500000 -0.500000 0.666667 0.329412 0.329412

usemtl material_0
vt 0.497642 0.999023
vt 0.000977 0.999023
vt 0.000977 0.502358
f 1/1/1 2/2/2 3/3/3

usemtl material_1
vt 0.002358 0.500977
vt 0.499023 0.500977
vt 0.499023 0.997642
f 1/4/1 3/5/3 4/6/4

usemtl material_2
vt 0.997642 0.999023
vt 0.500977 0.999023
vt 0.500977 0.502358
f 1/7/1 4/8/4 2/9/2

usemtl material_3
vt 0.502358 0.500977
vt 0.999023 0.500977
vt 0.999023 0.997642
f 4/10/4 3/11/3 2/12/2
